<?xml version="1.0" encoding="UTF-8"?>
<!DOCTYPE svg PUBLIC "-//W3C//DTD SVG 1.1//EN" "http://www.w3.org/Graphics/SVG/1.1/DTD/svg11.dtd">
<!-- Creator: CorelDRAW X8 -->
<svg xmlns="http://www.w3.org/2000/svg" xml:space="preserve" width="337.775mm" height="58.1088mm" version="1.1" style="shape-rendering:geometricPrecision; text-rendering:geometricPrecision; image-rendering:optimizeQuality; fill-rule:evenodd; clip-rule:evenodd"
viewBox="0 0 4774 821"
 xmlns:xlink="http://www.w3.org/1999/xlink">
 <defs>
  <style type="text/css">
   <![CDATA[
    .fil0 {fill:white}
    .fil1 {fill:white;fill-rule:nonzero}
   ]]>
  </style>
 </defs>
 <g id="Camada_x0020_1">
  <metadata id="CorelCorpID_0Corel-Layer"/>
  <path class="fil0" d="M717 1l218 319 -79 123 -207 -303 -164 -1 -322 508 165 0 0 127 -246 0 -82 0 0 -127 409 -646c102,0 206,0 308,0z"/>
  <polygon class="fil0" points="700,773 482,454 561,331 768,635 932,635 1254,128 1089,128 1089,0 1335,0 1417,0 1417,128 1008,773 "/>
  <path class="fil1" d="M2029 10l-107 0 -40 297c-4,27 -5,52 -5,82l-9 0c-7,-31 -17,-60 -26,-83l-98 -261c-9,-22 -18,-35 -41,-35l-62 0c-26,0 -39,12 -42,38l-66 468 106 0 42 -302c4,-27 5,-53 6,-79l7 0c5,25 14,55 22,76l101 270c9,22 17,35 42,35l62 0c26,0 38,-11 42,-38l66 -468zm1257 91l12 -91 -413 0 -12 91 150 0 -59 415 113 0 58 -415 151 0zm354 -3l13 -82c-66,-8 -152,-8 -233,-8 -70,0 -112,38 -121,99l-40 290c-10,73 27,121 111,121 71,0 155,0 220,-7l3 -83 -188 0c-28,0 -36,-10 -33,-37l14 -98 200 0 10 -79 -199 0 11 -77c3,-30 14,-39 42,-39l190 0zm-780 59c16,-118 -52,-154 -170,-154 -81,0 -127,1 -187,7l-71 506 109 0 28 -197 84 0c27,0 38,9 42,40l24 157 114 0 -26 -155c-8,-52 -33,-72 -61,-78l1 -5c76,-8 105,-55 113,-121zm-279 75l20 -142 87 -1c53,0 68,16 61,67 -9,59 -30,76 -88,76l-80 0zm-321 -232c-155,0 -218,63 -245,259 -27,204 33,267 187,267 151,0 216,-57 243,-259 28,-202 -35,-267 -185,-267zm-4 91c75,0 92,32 73,168 -21,139 -48,177 -125,177 -76,0 -91,-36 -72,-169 20,-141 46,-176 124,-176z"/>
  <path class="fil1" d="M3855 1c-110,0 -171,18 -187,133 -9,71 11,119 84,146l97 35c37,13 48,21 42,65 -8,56 -30,64 -106,64 -24,0 -54,0 -151,-3l-10 67c71,15 132,17 165,17 128,0 178,-25 193,-139 10,-75 -7,-119 -84,-146l-94 -34c-40,-14 -50,-21 -44,-65 9,-61 34,-61 96,-61 51,0 105,2 148,3l10 -64c-52,-14 -107,-18 -159,-18zm761 0c-110,0 -171,18 -187,133 -10,71 11,119 84,146l97 35c36,13 47,21 41,65 -7,56 -29,64 -105,64 -24,0 -55,0 -151,-3l-10 67c70,15 131,17 164,17 129,0 179,-25 194,-139 10,-75 -7,-119 -84,-146l-94 -34c-40,-14 -50,-21 -44,-65 9,-61 34,-61 96,-61 51,0 105,2 148,3l9 -64c-51,-14 -106,-18 -158,-18zm-378 344l214 -335 -100 0 -119 196c-11,18 -24,45 -28,64l-8 0c-1,-20 -5,-42 -11,-62l-64 -198 -94 0 119 330 -25 176 92 0 24 -171z"/>
  <path class="fil1" d="M1584 640c-27,0 -43,3 -47,33 -3,19 3,30 21,37l26 10c12,4 15,7 14,21 -3,18 -11,21 -33,21 -8,0 -15,0 -38,-1l-2 12c18,4 32,4 40,4 32,0 46,-5 50,-34 2,-20 -2,-30 -22,-38l-26 -9c-12,-5 -15,-8 -13,-21 2,-20 12,-20 29,-20 13,0 25,0 38,1l2 -12c-13,-3 -27,-4 -39,-4zm162 0c-39,0 -55,18 -62,68 -7,52 8,69 44,69 38,0 54,-17 61,-68 7,-51 -7,-69 -43,-69zm-1 15c26,0 32,12 26,53 -5,41 -16,54 -42,54 -26,0 -33,-13 -27,-53 6,-41 16,-54 43,-54zm142 -13l-17 0 -15 105c-2,18 8,28 24,28 17,0 35,0 51,-1l1 -14 -48 0c-9,0 -12,-4 -11,-12l15 -106zm215 0l-17 0 -11 81c-4,29 -14,39 -37,39 -23,0 -30,-9 -26,-38l12 -82 -17 0 -11 81c-6,39 8,54 42,54 33,0 48,-14 54,-53l11 -82zm123 -2c-38,0 -54,18 -61,68 -7,48 5,69 43,69 17,0 28,-1 39,-4l-1 -13c-11,1 -21,2 -37,2 -26,0 -32,-13 -26,-53 6,-43 17,-54 42,-54 15,0 23,0 34,2l3 -13c-11,-3 -19,-4 -36,-4zm-32 153c9,0 11,1 10,5 -1,9 -10,15 -20,14l-3 9c18,2 32,-7 35,-22 2,-13 -5,-15 -20,-14l-2 8zm172 -187c-9,-1 -16,6 -17,21l8 1c1,-8 4,-11 11,-11 9,2 14,10 27,11 10,1 17,-6 18,-21l-8 -1c-1,8 -4,11 -12,10 -10,-1 -15,-9 -27,-10zm11 34c-39,0 -55,18 -61,68 -8,52 7,69 44,69 37,0 53,-17 60,-68 7,-51 -7,-69 -43,-69zm-1 15c26,0 32,12 26,53 -5,41 -16,54 -42,54 -26,0 -32,-13 -27,-53 6,-41 16,-54 43,-54zm204 1l2 -13c-18,-1 -37,-1 -57,-1 -16,0 -26,8 -28,23l-12 83c-2,17 7,27 26,27 18,0 37,0 54,-1l0 -14 -52 0c-8,0 -12,-3 -10,-12l5 -37 57 0 1 -13 -57 0 4 -29c2,-9 5,-13 14,-13l53 0zm109 -16c-27,0 -43,3 -47,33 -3,19 3,30 21,37l27 10c12,4 15,7 13,21 -2,18 -10,21 -32,21 -9,0 -16,0 -39,-1l-2 12c18,4 33,4 41,4 31,0 45,-5 49,-34 3,-20 -2,-30 -22,-38l-26 -9c-12,-5 -15,-8 -13,-21 3,-20 12,-20 29,-20 13,0 25,0 38,1l2 -12c-13,-3 -26,-4 -39,-4zm236 16l2 -13c-17,-1 -37,-1 -57,-1 -16,0 -26,8 -28,23l-11 83c-3,17 6,27 25,27 18,0 37,0 54,-1l0 -14 -52 0c-8,0 -11,-3 -10,-12l5 -37 57 0 2 -13 -57 0 4 -29c1,-9 5,-13 13,-13l53 0zm179 -14c-4,0 -7,2 -8,6l-36 81c-3,6 -5,12 -8,18l-3 0c-1,-6 -2,-12 -3,-18l-14 -81c-1,-4 -3,-6 -6,-6l-19 0c-4,0 -7,2 -8,7l-22 126 16 0 21 -119 4 0 17 98c1,3 3,6 7,6l15 0c4,0 7,-2 8,-6l43 -98 4 0 -12 119 17 0 12 -125c0,-5 -2,-8 -7,-8l-18 0zm231 15l2 -15 -102 0 -2 15 43 0 -17 118 17 0 17 -118 42 0zm145 -1l2 -13c-17,-1 -37,-1 -57,-1 -16,0 -26,8 -28,23l-11 83c-3,17 6,27 25,27 18,0 37,0 54,-1l0 -14 -52 0c-8,0 -11,-3 -10,-12l5 -37 57 0 2 -13 -57 0 4 -29c1,-9 5,-13 13,-13l53 0zm118 -16c-38,0 -54,18 -61,68 -7,48 5,69 43,69 17,0 28,-1 39,-4l-1 -13c-11,1 -20,2 -37,2 -26,0 -32,-13 -26,-53 6,-43 17,-54 43,-54 14,0 22,0 33,2l3 -13c-11,-3 -19,-4 -36,-4zm208 2l-17 0 -13 97c-1,7 -2,13 -2,20l-4 0c-1,-7 -4,-14 -6,-20l-32 -91c-1,-4 -3,-6 -7,-6l-15 0c-4,0 -6,2 -7,7l-18 126 17 0 14 -100c1,-5 1,-11 1,-17l4 0c1,5 3,12 5,17l33 94c1,4 3,6 7,6l15 0c5,0 6,-2 7,-7l18 -126zm124 -2c-39,0 -55,18 -61,68 -8,52 7,69 44,69 37,0 53,-17 60,-68 7,-51 -7,-69 -43,-69zm-1 15c26,0 33,12 27,53 -6,41 -17,54 -43,54 -26,0 -32,-13 -27,-53 6,-41 16,-54 43,-54zm142 -13l-17 0 -14 105c-3,18 7,28 23,28 17,0 35,0 51,-1l1 -14 -48 0c-9,0 -12,-4 -11,-12l15 -106zm168 -2c-39,0 -55,18 -62,68 -7,52 8,69 44,69 38,0 54,-17 61,-68 7,-51 -7,-69 -43,-69zm-1 15c26,0 32,12 26,53 -6,41 -16,54 -42,54 -27,0 -33,-13 -27,-53 6,-41 16,-54 43,-54zm176 0c9,0 21,0 33,1l3 -12c-12,-3 -25,-4 -38,-4 -36,0 -56,13 -63,68 -5,48 5,69 33,69 17,0 30,-7 41,-21l0 19 12 0 11 -77 -16 0 -6 44c-13,13 -23,20 -37,20 -20,0 -25,-14 -20,-53 5,-45 16,-54 47,-54zm111 120l19 -133 -17 0 -19 133 17 0zm154 -42l7 42 17 0 -24 -128c-1,-3 -3,-5 -6,-5l-18 0c-3,0 -5,2 -6,5l-61 128 18 0 19 -42 54 0zm-2 -14l-46 0 24 -53c2,-3 4,-7 5,-11l6 0c0,4 1,8 1,11l10 53z"/>
 </g>
</svg>
